<svg xmlns="http://www.w3.org/2000/svg" viewBox="0 0 53.7 31"><defs><style>.a{fill:#b6dc76;}</style></defs><g transform="translate(-5.2 -16.5)"><path class="a" d="M56.5,16.5H7.5a2.263,2.263,0,0,0-2.3,2.3V45.2a2.263,2.263,0,0,0,2.3,2.3H56.6a2.263,2.263,0,0,0,2.3-2.3V18.8A2.414,2.414,0,0,0,56.5,16.5Zm-.4,28.3H7.9V19.2H56.1V44.8Z"/><path class="a" d="M32,21.1A10.9,10.9,0,1,0,42.9,32,10.926,10.926,0,0,0,32,21.1Zm4.7,15.8a4.428,4.428,0,0,1-1.2,1.5,4.8,4.8,0,0,1-1.9.9c-.3.1-.6.1-.9.2v1.3H31V39.6a4.869,4.869,0,0,1-1.2-.1,10.378,10.378,0,0,1-1.2-.3,1.884,1.884,0,0,1-.9-.4,2.186,2.186,0,0,1-.5-.3A.764.764,0,0,1,27,38a2.787,2.787,0,0,1-.1-1v-.7c0-.2,0-.3.1-.4a.349.349,0,0,1,.1-.2c.1,0,.1-.1.2-.1a1.689,1.689,0,0,1,.5.2,5.938,5.938,0,0,0,.8.4,3.582,3.582,0,0,0,1.1.4,6.053,6.053,0,0,0,1.5.2,2.769,2.769,0,0,0,.9-.1,4.875,4.875,0,0,0,.7-.3,1,1,0,0,0,.4-.5,1.483,1.483,0,0,0,.1-.7,1.135,1.135,0,0,0-.3-.8,4.349,4.349,0,0,0-.7-.6c-.3-.2-.7-.3-1-.5a6.117,6.117,0,0,1-1.2-.5l-1.2-.6a3.915,3.915,0,0,1-1-.8,2.4,2.4,0,0,1-.7-1.2,4.146,4.146,0,0,1-.3-1.6,3.922,3.922,0,0,1,.4-1.8,4.863,4.863,0,0,1,1.1-1.4,4.608,4.608,0,0,1,1.7-.9,2.958,2.958,0,0,1,1-.2V23h1.7v1.2a2.769,2.769,0,0,1,.9.1c.4.1.8.1,1.1.2a6.89,6.89,0,0,1,.8.3,2.186,2.186,0,0,1,.5.3c.1.1.2.1.2.2s.1.2.1.3a.756.756,0,0,0,.1.4v1.3c0,.2,0,.3-.1.4a.349.349,0,0,1-.1.2c-.1,0-.1.1-.2.1s-.2-.1-.4-.2a4.875,4.875,0,0,0-.7-.3c-.3-.1-.6-.2-1-.3a5.067,5.067,0,0,0-1.3-.2,2.769,2.769,0,0,0-.9.1,1.628,1.628,0,0,0-.6.3,1,1,0,0,0-.4.5,1.268,1.268,0,0,0-.1.6,1.136,1.136,0,0,0,.3.8,2.761,2.761,0,0,0,.8.6,11.731,11.731,0,0,0,1.1.5,6.117,6.117,0,0,1,1.2.5l1.2.6a4.44,4.44,0,0,1,1.1.8,3.6,3.6,0,0,1,.8,1.2,3.808,3.808,0,0,1,.3,1.6C37.1,35.7,37,36.4,36.7,36.9Z"/><circle class="a" cx="3.6" cy="3.6" r="3.6" transform="translate(9.7 28.4)"/><circle class="a" cx="3.6" cy="3.6" r="3.6" transform="translate(47.1 28.4)"/><path class="a" d="M56.5,16.5H7.5a2.263,2.263,0,0,0-2.3,2.3V45.2a2.263,2.263,0,0,0,2.3,2.3H56.6a2.263,2.263,0,0,0,2.3-2.3V18.8A2.414,2.414,0,0,0,56.5,16.5Zm-.4,28.3H7.9V19.2H56.1V44.8Z"/><path class="a" d="M32,21.1A10.9,10.9,0,1,0,42.9,32,10.926,10.926,0,0,0,32,21.1Zm4.7,15.8a4.428,4.428,0,0,1-1.2,1.5,4.8,4.8,0,0,1-1.9.9c-.3.1-.6.1-.9.2v1.3H31V39.6a4.869,4.869,0,0,1-1.2-.1,10.378,10.378,0,0,1-1.2-.3,1.884,1.884,0,0,1-.9-.4,2.186,2.186,0,0,1-.5-.3A.764.764,0,0,1,27,38a2.787,2.787,0,0,1-.1-1v-.7c0-.2,0-.3.1-.4a.349.349,0,0,1,.1-.2c.1,0,.1-.1.2-.1a1.689,1.689,0,0,1,.5.2,5.938,5.938,0,0,0,.8.4,3.582,3.582,0,0,0,1.1.4,6.053,6.053,0,0,0,1.5.2,2.769,2.769,0,0,0,.9-.1,4.875,4.875,0,0,0,.7-.3,1,1,0,0,0,.4-.5,1.483,1.483,0,0,0,.1-.7,1.135,1.135,0,0,0-.3-.8,4.349,4.349,0,0,0-.7-.6c-.3-.2-.7-.3-1-.5a6.117,6.117,0,0,1-1.2-.5l-1.2-.6a3.915,3.915,0,0,1-1-.8,2.4,2.4,0,0,1-.7-1.2,4.146,4.146,0,0,1-.3-1.6,3.922,3.922,0,0,1,.4-1.8,4.863,4.863,0,0,1,1.1-1.4,4.608,4.608,0,0,1,1.7-.9,2.958,2.958,0,0,1,1-.2V23h1.7v1.2a2.769,2.769,0,0,1,.9.1c.4.1.8.1,1.1.2a6.89,6.89,0,0,1,.8.3,2.186,2.186,0,0,1,.5.3c.1.1.2.1.2.2s.1.2.1.3a.756.756,0,0,0,.1.4v1.3c0,.2,0,.3-.1.4a.349.349,0,0,1-.1.2c-.1,0-.1.1-.2.1s-.2-.1-.4-.2a4.875,4.875,0,0,0-.7-.3c-.3-.1-.6-.2-1-.3a5.067,5.067,0,0,0-1.3-.2,2.769,2.769,0,0,0-.9.1,1.628,1.628,0,0,0-.6.3,1,1,0,0,0-.4.5,1.268,1.268,0,0,0-.1.6,1.136,1.136,0,0,0,.3.8,2.761,2.761,0,0,0,.8.6,11.731,11.731,0,0,0,1.1.5,6.117,6.117,0,0,1,1.2.5l1.2.6a4.44,4.44,0,0,1,1.1.8,3.6,3.6,0,0,1,.8,1.2,3.808,3.808,0,0,1,.3,1.6C37.1,35.7,37,36.4,36.7,36.9Z"/><circle class="a" cx="3.6" cy="3.6" r="3.6" transform="translate(9.7 28.4)"/><circle class="a" cx="3.6" cy="3.6" r="3.6" transform="translate(47.1 28.4)"/></g></svg>